<?xml version="1.0"?>
<!DOCTYPE svg PUBLIC '-//W3C//DTD SVG 1.1//EN' 'http://www.w3.org/Graphics/SVG/1.1/DTD/svg11.dtd'>
<svg xmlns="http://www.w3.org/2000/svg" xmlns:xlink="http://www.w3.org/1999/xlink" xmlns:serif="http://www.serif.com/" width="100%" height="100%" viewBox="0 0 64 64" version="1.1" xml:space="preserve" style="fill-rule:evenodd;clip-rule:evenodd;stroke-linejoin:round;stroke-miterlimit:2;">
    <g>
        <path d="M3,8L3,61C3,62.105 3.895,63 5,63L59,63C60.105,63 61,62.105 61,61L61,8C61,6.895 60.105,6 59,6L54,6L54,3C54,1.896 53.104,1 52,1C50.896,1 50,1.896 50,3L50,6L44,6L44,3C44,1.896 43.104,1 42,1C40.896,1 40,1.896 40,3L40,6L34,6L34,3C34,1.896 33.104,1 32,1C30.896,1 30,1.896 30,3L30,6L24,6L24,3C24,1.896 23.104,1 22,1C20.896,1 20,1.896 20,3L20,6L14,6L14,3C14,1.896 13.104,1 12,1C10.896,1 10,1.896 10,3L10,6L5,6C3.895,6 3,6.895 3,8ZM57,20L7,20L7,59L57,59L57,20ZM57,16L57,10L54,10L54,12C54,13.104 53.104,14 52,14C50.896,14 50,13.104 50,12L50,10L44,10L44,12C44,13.104 43.104,14 42,14C40.896,14 40,13.104 40,12L40,10L34,10L34,12C34,13.104 33.104,14 32,14C30.896,14 30,13.104 30,12L30,10L24,10L24,12C24,13.104 23.104,14 22,14C20.896,14 20,13.104 20,12L20,10L14,10L14,12C14,13.104 13.104,14 12,14C10.896,14 10,13.104 10,12L10,10L7,10L7,16L57,16Z" fill="rgb(182, 238, 255)"/>
        <g transform="matrix(1,0,0,1,-1,2)">
            <path d="M15,28L21,28C22.104,28 23,27.104 23,26C23,24.896 22.104,24 21,24L15,24C13.896,24 13,24.896 13,26C13,27.104 13.896,28 15,28Z" fill="rgb(182, 238, 255)"/>
        </g>
        <g transform="matrix(1,0,0,1,-1,10)">
            <path d="M15,28L21,28C22.104,28 23,27.104 23,26C23,24.896 22.104,24 21,24L15,24C13.896,24 13,24.896 13,26C13,27.104 13.896,28 15,28Z" fill="rgb(182, 238, 255)"/>
        </g>
        <g transform="matrix(1,0,0,1,-1,18)">
            <path d="M15,28L21,28C22.104,28 23,27.104 23,26C23,24.896 22.104,24 21,24L15,24C13.896,24 13,24.896 13,26C13,27.104 13.896,28 15,28Z" fill="rgb(182, 238, 255)"/>
        </g>
        <g transform="matrix(1,0,0,1,-1,26)">
            <path d="M15,28L21,28C22.104,28 23,27.104 23,26C23,24.896 22.104,24 21,24L15,24C13.896,24 13,24.896 13,26C13,27.104 13.896,28 15,28Z" fill="rgb(182, 238, 255)"/>
        </g>
        <g transform="matrix(1,0,0,1,14,2)">
            <path d="M15,28L21,28C22.104,28 23,27.104 23,26C23,24.896 22.104,24 21,24L15,24C13.896,24 13,24.896 13,26C13,27.104 13.896,28 15,28Z" fill="rgb(182, 238, 255)"/>
        </g>
        <g transform="matrix(1,0,0,1,14,10)">
            <path d="M15,28L21,28C22.104,28 23,27.104 23,26C23,24.896 22.104,24 21,24L15,24C13.896,24 13,24.896 13,26C13,27.104 13.896,28 15,28Z" fill="rgb(182, 238, 255)"/>
        </g>
        <g transform="matrix(1,0,0,1,14,18)">
            <path d="M15,28L21,28C22.104,28 23,27.104 23,26C23,24.896 22.104,24 21,24L15,24C13.896,24 13,24.896 13,26C13,27.104 13.896,28 15,28Z" fill="rgb(182, 238, 255)"/>
        </g>
        <g transform="matrix(1,0,0,1,14,26)">
            <path d="M15,28L21,28C22.104,28 23,27.104 23,26C23,24.896 22.104,24 21,24L15,24C13.896,24 13,24.896 13,26C13,27.104 13.896,28 15,28Z" fill="rgb(182, 238, 255)"/>
        </g>
        <g transform="matrix(1,0,0,1,29,2)">
            <path d="M15,28L21,28C22.104,28 23,27.104 23,26C23,24.896 22.104,24 21,24L15,24C13.896,24 13,24.896 13,26C13,27.104 13.896,28 15,28Z" fill="rgb(182, 238, 255)"/>
        </g>
        <g transform="matrix(1,0,0,1,29,10)">
            <path d="M15,28L21,28C22.104,28 23,27.104 23,26C23,24.896 22.104,24 21,24L15,24C13.896,24 13,24.896 13,26C13,27.104 13.896,28 15,28Z" fill="rgb(182, 238, 255)"/>
        </g>
        <g transform="matrix(1,0,0,1,29,18)">
            <path d="M15,28L21,28C22.104,28 23,27.104 23,26C23,24.896 22.104,24 21,24L15,24C13.896,24 13,24.896 13,26C13,27.104 13.896,28 15,28Z" fill="rgb(182, 238, 255)"/>
        </g>
    </g>
</svg>
