<?xml version="1.0" encoding="iso-8859-1"?>
<!-- Generator: Adobe Illustrator 16.0.0, SVG Export Plug-In . SVG Version: 6.00 Build 0)  -->
<!DOCTYPE svg PUBLIC "-//W3C//DTD SVG 1.1//EN" "http://www.w3.org/Graphics/SVG/1.1/DTD/svg11.dtd">
<svg version="1.1" id="Capa_1" xmlns="http://www.w3.org/2000/svg" xmlns:xlink="http://www.w3.org/1999/xlink" x="0px" y="0px"
	 width="66px" height="66px" viewBox="0 0 66 66" style="enable-background:new 0 0 66 66;" xml:space="preserve" fill="rgb(182, 238, 255">
<g>
	<g>
		<g>
			<path d="M65,59.068C65,62.896,61.896,66,58.068,66H7.932C4.104,66,1,62.896,1,59.068V14.932C1,11.104,4.104,8,7.932,8h50.136
				C61.896,8,65,11.104,65,14.932V59.068z M61,14.932C61,13.313,59.688,12,58.068,12H7.932C6.313,12,5,13.313,5,14.932v44.136
				C5,60.688,6.313,62,7.932,62h50.136C59.688,62,61,60.688,61,59.068V14.932z"/>
		</g>
		<g>
			<g>
				<path d="M54.104,59h-6.31c-0.553,0-1-0.447-1-1s0.447-1,1-1h6.31c0.99,0,1.69-0.17,1.69-2.359c0-0.553,0.55-1,1.103-1
					c0.554,0,1.104,0.447,1.104,1V55c0,0.059-0.107,0.115-0.117,0.172C57.734,57.713,56.398,59,54.104,59z"/>
			</g>
			<g>
				<path d="M56.875,51.411c-0.271,0-0.521-0.111-0.71-0.291c-0.181-0.188-0.29-0.438-0.29-0.709c0-0.263,0.109-0.521,0.29-0.711
					c0.37-0.369,1.04-0.369,1.42,0c0.181,0.188,0.29,0.448,0.29,0.711c0,0.26-0.109,0.521-0.29,0.709
					C57.395,51.299,57.135,51.411,56.875,51.411z"/>
			</g>
		</g>
		<g>
			<g>
				<path d="M15.795,36h-1c-0.553,0-1-0.447-1-1s0.447-1,1-1h1c0.553,0,1,0.447,1,1S16.348,36,15.795,36z"/>
			</g>
			<g>
				<path d="M22.795,36h-1c-0.553,0-1-0.447-1-1s0.447-1,1-1h1c0.553,0,1,0.447,1,1S23.348,36,22.795,36z"/>
			</g>
			<g>
				<path d="M29.795,36h-1c-0.553,0-1-0.447-1-1s0.447-1,1-1h1c0.553,0,1,0.447,1,1S30.348,36,29.795,36z"/>
			</g>
			<g>
				<path d="M35.795,36h-1c-0.553,0-1-0.447-1-1s0.447-1,1-1h1c0.553,0,1,0.447,1,1S36.348,36,35.795,36z"/>
			</g>
			<g>
				<path d="M42.795,36h-1c-0.553,0-1-0.447-1-1s0.447-1,1-1h1c0.553,0,1,0.447,1,1S43.348,36,42.795,36z"/>
			</g>
			<g>
				<path d="M49.795,36h-1c-0.553,0-1-0.447-1-1s0.447-1,1-1h1c0.553,0,1,0.447,1,1S50.348,36,49.795,36z"/>
			</g>
		</g>
		<g>
			<g>
				<path d="M15.795,42h-1c-0.553,0-1-0.447-1-1s0.447-1,1-1h1c0.553,0,1,0.447,1,1S16.348,42,15.795,42z"/>
			</g>
			<g>
				<path d="M22.795,42h-1c-0.553,0-1-0.447-1-1s0.447-1,1-1h1c0.553,0,1,0.447,1,1S23.348,42,22.795,42z"/>
			</g>
			<g>
				<path d="M29.795,42h-1c-0.553,0-1-0.447-1-1s0.447-1,1-1h1c0.553,0,1,0.447,1,1S30.348,42,29.795,42z"/>
			</g>
			<g>
				<path d="M35.795,42h-1c-0.553,0-1-0.447-1-1s0.447-1,1-1h1c0.553,0,1,0.447,1,1S36.348,42,35.795,42z"/>
			</g>
			<g>
				<path d="M42.795,42h-1c-0.553,0-1-0.447-1-1s0.447-1,1-1h1c0.553,0,1,0.447,1,1S43.348,42,42.795,42z"/>
			</g>
			<g>
				<path d="M49.795,42h-1c-0.553,0-1-0.447-1-1s0.447-1,1-1h1c0.553,0,1,0.447,1,1S50.348,42,49.795,42z"/>
			</g>
		</g>
		<g>
			<g>
				<path d="M15.795,54h-1c-0.553,0-1-0.447-1-1s0.447-1,1-1h1c0.553,0,1,0.447,1,1S16.348,54,15.795,54z"/>
			</g>
			<g>
				<path d="M22.795,54h-1c-0.553,0-1-0.447-1-1s0.447-1,1-1h1c0.553,0,1,0.447,1,1S23.348,54,22.795,54z"/>
			</g>
			<g>
				<path d="M29.795,54h-1c-0.553,0-1-0.447-1-1s0.447-1,1-1h1c0.553,0,1,0.447,1,1S30.348,54,29.795,54z"/>
			</g>
			<g>
				<path d="M35.795,54h-1c-0.553,0-1-0.447-1-1s0.447-1,1-1h1c0.553,0,1,0.447,1,1S36.348,54,35.795,54z"/>
			</g>
		</g>
		<g>
			<g>
				<path d="M15.795,48h-1c-0.553,0-1-0.447-1-1s0.447-1,1-1h1c0.553,0,1,0.447,1,1S16.348,48,15.795,48z"/>
			</g>
			<g>
				<path d="M22.795,48h-1c-0.553,0-1-0.447-1-1s0.447-1,1-1h1c0.553,0,1,0.447,1,1S23.348,48,22.795,48z"/>
			</g>
			<g>
				<path d="M29.795,48h-1c-0.553,0-1-0.447-1-1s0.447-1,1-1h1c0.553,0,1,0.447,1,1S30.348,48,29.795,48z"/>
			</g>
			<g>
				<path d="M35.795,48h-1c-0.553,0-1-0.447-1-1s0.447-1,1-1h1c0.553,0,1,0.447,1,1S36.348,48,35.795,48z"/>
			</g>
			<g>
				<path d="M42.795,48h-1c-0.553,0-1-0.447-1-1s0.447-1,1-1h1c0.553,0,1,0.447,1,1S43.348,48,42.795,48z"/>
			</g>
			<g>
				<path d="M49.795,48h-1c-0.553,0-1-0.447-1-1s0.447-1,1-1h1c0.553,0,1,0.447,1,1S50.348,48,49.795,48z"/>
			</g>
		</g>
		<g>
			<g>
				<path d="M15,19c-1.104,0-2-0.896-2-2V2c0-1.104,0.896-2,2-2s2,0.896,2,2v15C17,18.105,16.104,19,15,19z"/>
			</g>
			<g>
				<path d="M50,19c-1.104,0-2-0.896-2-2V2c0-1.104,0.896-2,2-2s2,0.896,2,2v15C52,18.105,51.104,19,50,19z"/>
			</g>
		</g>
		<g>
			<path d="M62.795,27h-60c-0.553,0-1-0.447-1-1s0.447-1,1-1h60c0.553,0,1,0.447,1,1S63.348,27,62.795,27z"/>
		</g>
	</g>
</g>
<g>
</g>
<g>
</g>
<g>
</g>
<g>
</g>
<g>
</g>
<g>
</g>
<g>
</g>
<g>
</g>
<g>
</g>
<g>
</g>
<g>
</g>
<g>
</g>
<g>
</g>
<g>
</g>
<g>
</g>
</svg>
