<svg id="레이어_1" data-name="레이어 1" xmlns="http://www.w3.org/2000/svg" viewBox="0 0 151.38 39.62"><defs><style>.cls-1{fill:#f29334;}.cls-2{fill:#040000;}</style></defs><path class="cls-1" d="M63.69,26.1V18.73c0-4.16,0-5.17,0-5.51V0H55.76V27.61a12,12,0,0,0,12,12H84.06V31.68H69.28A5.59,5.59,0,0,1,63.69,26.1Z"/><polygon class="cls-2" points="32.68 39.62 40.62 39.62 40.62 7.94 51.94 7.94 51.94 0 21.37 0 21.37 7.94 32.68 7.94 32.68 39.62"/><path class="cls-2" d="M7.94,26.1V18.73c0-4.16,0-5.17,0-5.51V0H0V27.61a12,12,0,0,0,12,12H28.31V31.68H13.52A5.58,5.58,0,0,1,7.94,26.1Z"/><path class="cls-1" d="M107.76,31.68H98.65a5.58,5.58,0,0,1-5.58-5.58V0H85.13V27.6a12,12,0,0,0,12,12H115.7V0h-7.94Z"/><polygon class="cls-1" points="151.38 0 142.54 0 134.69 15.7 126.85 0 118.01 0 127.91 19.81 118.01 39.62 126.85 39.62 134.69 23.93 142.54 39.62 151.38 39.62 141.47 19.81 151.38 0"/></svg>