<?xml version="1.0" encoding="utf-8"?>
<!-- Generator: Adobe Illustrator 25.1.0, SVG Export Plug-In . SVG Version: 6.00 Build 0)  -->
<svg version="1.1" id="레이어_1" xmlns="http://www.w3.org/2000/svg" xmlns:xlink="http://www.w3.org/1999/xlink" x="0px"
	 y="0px" viewBox="0 0 227.62 238.48" style="enable-background:new 0 0 227.62 238.48;" xml:space="preserve">
<style type="text/css">
	.st0{fill-rule:evenodd;clip-rule:evenodd;fill:#ffffff;}
	.st1{fill:#ffffff;}
</style>
<path class="st0" d="M44.5,3.42h38.48v12.5c-7.33,1.63-12.83,8.16-12.83,15.95v54.76c0,7.8,5.5,14.42,12.83,16.06v30.29
	c-0.03,1.91,1.5,3.47,3.4,3.5c1.91,0.03,3.47-1.5,3.5-3.4c0-0.03,0-0.07,0-0.1V102.8c7.38-1.59,12.94-8.33,12.94-16.17V31.88
	c0-7.84-5.57-14.48-12.94-16.06V3.42h38.59c22.42,0,40.75,18.41,40.75,41.07v106.18c0,45.91-37.26,83.43-82.78,83.43
	c-45.56,0-82.78-37.53-82.78-83.43V44.49C3.65,21.83,22.05,3.42,44.5,3.42L44.5,3.42z"/>
<path class="st0" d="M86.43,22.39c5.2,0,9.49,4.21,9.49,9.49v54.76c0,5.28-4.3,9.59-9.49,9.59c-5.23,0-9.38-4.32-9.38-9.59V31.88
	C77.05,26.6,81.19,22.39,86.43,22.39z"/>
<path class="st1" d="M203.81,26.79l-14,24.25c-1.03,1.78,0.26,4,2.31,4h28c2.05,0,3.34-2.22,2.31-4l-14-24.25
	C207.4,25.01,204.84,25.01,203.81,26.79z"/>
<path class="st1" d="M208.43,91.83l14-24.25c1.03-1.78-0.26-4-2.31-4h-28c-2.05,0-3.34,2.22-2.31,4l14,24.25
	C204.84,93.61,207.4,93.61,208.43,91.83z"/>
</svg>
